<svg width="80" height="80" viewBox="0 0 80 80" fill="none" xmlns="http://www.w3.org/2000/svg">
<path d="M29.7598 53.3333L28.0931 66.6667" stroke="black" stroke-width="2.8" stroke-linecap="round" stroke-linejoin="round"/>
<path d="M66.6667 26.6667V18.0933C66.6667 13.6235 63.0432 10 58.5733 10H18.0933C13.6235 10 10 13.6235 10 18.0933V45.24C10 49.7098 13.6235 53.3333 18.0933 53.3333H43.3333" stroke="black" stroke-width="2.8" stroke-linecap="round" stroke-linejoin="round"/>
<path d="M23.0938 66.6667H36.6671" stroke="black" stroke-width="2.8" stroke-linecap="round" stroke-linejoin="round"/>
<path fill-rule="evenodd" clip-rule="evenodd" d="M50 68.3333V66.98C50.011 63.1296 53.1296 60.011 56.98 60H66.3533C70.2037 60.011 73.3224 63.1296 73.3333 66.98V68.3333C73.3333 69.2538 72.5871 70 71.6667 70H51.6667C50.7462 70 50 69.2538 50 68.3333Z" stroke="black" stroke-width="2.8" stroke-linecap="round" stroke-linejoin="round"/>
<circle cx="61.6667" cy="45" r="6.66667" stroke="black" stroke-width="2.8" stroke-linecap="round" stroke-linejoin="round"/>
<path d="M23.333 23.3333L28.3035 28.3039L23.333 33.2744" stroke="#E31E30" stroke-width="2.8" stroke-linecap="round" stroke-linejoin="round"/>
<path d="M35 36.6667H40" stroke="#E31E30" stroke-width="2.8" stroke-linecap="round" stroke-linejoin="round"/>
</svg>
