<svg width="80" height="80" viewBox="0 0 80 80" fill="none" xmlns="http://www.w3.org/2000/svg">
<path d="M34.4434 56.6667V38.1467C34.4434 36.1033 36.1034 34.4433 38.1467 34.4433H45.5534" stroke="#E31E30" stroke-width="2.8" stroke-linecap="round" stroke-linejoin="round"/>
<path fill-rule="evenodd" clip-rule="evenodd" d="M60 70H20C14.4767 70 10 65.5233 10 60V20C10 14.4767 14.4767 10 20 10H60C65.5233 10 70 14.4767 70 20V60C70 65.5233 65.5233 70 60 70Z" stroke="black" stroke-width="2.8" stroke-linecap="round" stroke-linejoin="round"/>
<path d="M45.5563 56.6667V27.0367C45.5563 24.9933 47.213 23.3333 49.2597 23.3333H52.963C55.0063 23.3333 56.6663 24.9933 56.6663 27.0367V52.9633C56.6663 55.0067 55.0063 56.6667 52.963 56.6667H27.0363C24.993 56.6667 23.333 55.0067 23.333 52.9633V49.26C23.333 47.2167 24.993 45.5567 27.0363 45.5567H34.443" stroke="#E31E30" stroke-width="2.8" stroke-linecap="round" stroke-linejoin="round"/>
</svg>
