<svg xmlns="http://www.w3.org/2000/svg" id="Layer_1" data-name="Layer 1" viewBox="0 0 2500 748"><defs><style>      .cls-1 {        fill: #e31e30;      }    </style></defs><g><path d="m702.49,467.44v-143.71c0-16.26,4.97-29.33,14.92-39.22,9.94-9.88,22.93-14.83,38.96-14.83h116.69v34.22l-16.14,16.14h-78.96c-14.39,0-21.58,7.19-21.58,21.58v107.74c0,14.39,7.19,21.58,21.58,21.58h95.11v50.36h-116.69c-16.03,0-29.01-4.91-38.96-14.74-9.94-9.83-14.92-22.87-14.92-39.13Z"></path><path d="m898.31,470.95v-150.91c0-16.26,4.97-29.3,14.92-39.13,9.94-9.83,22.93-14.74,38.96-14.74h84.4c16.26,0,29.3,4.91,39.13,14.74s14.74,22.87,14.74,39.13v150.91c0,16.26-4.91,29.3-14.74,39.13s-22.87,14.74-39.13,14.74h-84.4c-16.03,0-29.01-4.91-38.96-14.74-9.94-9.83-14.92-22.87-14.92-39.13Zm75.45,3.69h41.24c14.39,0,21.58-7.19,21.58-21.58v-114.93c0-14.39-7.19-21.58-21.58-21.58h-41.24c-14.39,0-21.58,7.19-21.58,21.58v114.93c0,14.39,7.19,21.58,21.58,21.58Z"></path><path d="m1133.45,521.31v-251.63h134.76c16.26,0,29.3,4.91,39.13,14.74,9.83,9.83,14.74,22.93,14.74,39.31v143.71c0,16.26-4.91,29.3-14.74,39.13s-22.87,14.74-39.13,14.74h-134.76Zm53.87-50.36h59.31c14.39,0,21.58-7.19,21.58-21.58v-107.74c0-14.39-7.19-21.58-21.58-21.58h-59.31v150.91Z"></path><path d="m1365.07,521.31v-251.63h163.54v34.22l-16.14,16.14h-93.53v50.36h73.7v48.43h-73.7v52.12h109.67v50.36h-163.54Z"></path><path d="m1564.41,521.31v-251.63h59.31l84.4,158.28h1.93l-5.44-44.92v-113.36h53.87v251.63h-59.31l-84.4-158.1h-1.75l5.26,44.92v113.18h-53.87Z"></path><path d="m1805.16,521.31v-251.63h53.87v251.63h-53.87Z"></path><path d="m1905.7,521.31v-251.63h59.31l84.4,158.28h1.93l-5.44-44.92v-113.36h53.87v251.63h-59.31l-84.4-158.1h-1.75l5.26,44.92v113.18h-53.87Z"></path><path d="m2126.62,524.82v-50.19h55.8c14.39,0,21.58-7.19,21.58-21.58v-183.37h53.87v201.27c0,16.26-4.97,29.3-14.92,39.13-9.94,9.83-22.93,14.74-38.96,14.74h-77.38Z"></path><path d="m2275.6,521.31v-25.09l71.94-226.54h68.26l71.94,226.54v25.09h-52.12l-12.63-50.36h-82.65l-12.63,50.36h-52.12Zm77.38-97.04h57.38l-26.85-105.99h-3.68l-26.85,105.99Z"></path></g><path class="cls-1" d="m255.83,464.85l-165.98-54.62,165.92-56.25,37.08-109.48L8.92,358.06v102.85l283.23,111.05-36.33-107.1Zm110.8-110.8l165.73,56.18-165.79,54.55-35.08,106.67,281.73-110.55v-102.85l-282.48-112.99,35.89,108.98Z"></path></svg>