<svg width="82" height="82" viewBox="0 0 82 82" fill="none" xmlns="http://www.w3.org/2000/svg">
<path d="M27.6611 61.0084H41" stroke="#E31E30" stroke-width="2.8" stroke-linecap="round" stroke-linejoin="round"/>
<path d="M54.3389 51.0042V64.343C54.3389 68.0265 51.3529 71.0125 47.6695 71.0125H20.9917C17.3083 71.0125 14.3223 68.0265 14.3223 64.343V17.6569C14.3223 13.9735 17.3083 10.9875 20.9917 10.9875H30.9959" stroke="black" stroke-width="2.8" stroke-linecap="round" stroke-linejoin="round"/>
<path d="M41.3334 24.92V41" stroke="black" stroke-width="2.8" stroke-linecap="round" stroke-linejoin="round"/>
<path d="M68.0111 41V24.6865" stroke="black" stroke-width="2.8" stroke-linecap="round" stroke-linejoin="round"/>
<path d="M54.3392 41V34.3306" stroke="#E31E30" stroke-width="2.8" stroke-linecap="round" stroke-linejoin="round"/>
<path d="M39.666 41H69.5451" stroke="black" stroke-width="2.8" stroke-linecap="round" stroke-linejoin="round"/>
<path d="M54.3389 25.1167C56.8271 25.117 59.0389 23.5316 59.8378 21.1751C59.8911 21.0542 60.0108 20.9761 60.143 20.9761C60.2751 20.9761 60.3948 21.0542 60.4481 21.1751C61.2483 23.5321 63.4612 25.1174 65.9504 25.1167" stroke="black" stroke-width="2.8" stroke-linecap="round" stroke-linejoin="round"/>
<path d="M42.7275 25.1167C45.2164 25.1164 47.4288 23.5315 48.2298 21.1751C48.2831 21.0542 48.4028 20.9761 48.535 20.9761C48.6671 20.9761 48.7868 21.0542 48.8401 21.1751C49.639 23.5316 51.8508 25.117 54.339 25.1167" stroke="black" stroke-width="2.8" stroke-linecap="round" stroke-linejoin="round"/>
<path d="M65.9505 25.1167C67.7055 25.1145 69.3337 24.2023 70.2521 22.7068C71.1705 21.2113 71.2475 19.3465 70.4557 17.7803L68.2615 13.4452C67.4933 11.9363 65.943 10.9865 64.2498 10.9875H44.4282C42.7379 10.9909 41.1921 11.9415 40.4265 13.4485L38.2323 17.7837C37.4405 19.3498 37.5176 21.2146 38.4359 22.7101C39.3543 24.2056 40.9825 25.1178 42.7375 25.12V25.12" stroke="black" stroke-width="2.8" stroke-linecap="round" stroke-linejoin="round"/>
</svg>
