<svg width="80" height="80" viewBox="0 0 80 80" fill="none" xmlns="http://www.w3.org/2000/svg">
<path fill-rule="evenodd" clip-rule="evenodd" d="M60.0081 56.6736H19.9915C14.4663 56.6736 9.9873 52.1946 9.9873 46.6695V19.9917C9.9873 14.4665 14.4663 9.98752 19.9915 9.98752H60.0081C65.5333 9.98752 70.0123 14.4665 70.0123 19.9917V46.6695C70.0123 52.1946 65.5333 56.6736 60.0081 56.6736Z" stroke="#323232" stroke-width="2.8" stroke-linecap="round" stroke-linejoin="round"/>
<path d="M46.6696 56.6736L48.337 70.0125" stroke="#323232" stroke-width="2.8" stroke-linecap="round" stroke-linejoin="round"/>
<path d="M33.3301 56.6736L31.6628 70.0125" stroke="#323232" stroke-width="2.8" stroke-linecap="round" stroke-linejoin="round"/>
<path d="M23.9932 70.0125H56.0065" stroke="#323232" stroke-width="2.8" stroke-linecap="round" stroke-linejoin="round"/>
<path d="M55.9936 33.2669L50.9795 38.2811" stroke="#E31E30" stroke-width="2.8" stroke-linecap="round" stroke-linejoin="round"/>
<path d="M51.0371 28.3115L55.9938 33.2669" stroke="#E31E30" stroke-width="2.8" stroke-linecap="round" stroke-linejoin="round"/>
<path d="M29.0199 38.317L24.0059 33.304" stroke="#E31E30" stroke-width="2.8" stroke-linecap="round" stroke-linejoin="round"/>
<path d="M28.9628 28.3471L24.0059 33.304" stroke="#E31E30" stroke-width="2.8" stroke-linecap="round" stroke-linejoin="round"/>
<path d="M42.5258 24.9937L37.5117 41.6674" stroke="#E31E30" stroke-width="2.8" stroke-linecap="round" stroke-linejoin="round"/>
</svg>
